<?xml version="1.0" encoding="UTF-8"?><svg id="Layer_1" xmlns="http://www.w3.org/2000/svg" xmlns:xlink="http://www.w3.org/1999/xlink" viewBox="0 0 585.7212 439.64151"><defs><style>.cls-1{fill:#f9f9f6;}.cls-1,.cls-2,.cls-3,.cls-4,.cls-5,.cls-6,.cls-7,.cls-8,.cls-9,.cls-10,.cls-11,.cls-12,.cls-13{stroke-width:0px;}.cls-2{fill:#4ec159;}.cls-3{fill:#488496;}.cls-4{fill:#e6aa05;}.cls-5{fill:#387689;}.cls-6{fill:none;}.cls-14{clip-path:url(#clippath-1);}.cls-7{fill:#4e493c;}.cls-8{fill:#fff;}.cls-9{fill:#315c66;}.cls-15{clip-path:url(#clippath);}.cls-10{fill:#76a87e;}.cls-11{fill:#a8a8a8;}.cls-12{fill:#cc4650;}.cls-13{fill:#5eb1d3;}</style><clipPath id="clippath"><rect class="cls-6" x="372.48394" y="4.60274" width="62.19" height="130.659"/></clipPath><clipPath id="clippath-1"><rect class="cls-6" x="139.58595" y="139.51974" width="102.797" height="102.64"/></clipPath></defs><path id="Path_471" class="cls-7" d="M547.12907,438.02798s-193.49067,10.60772-260.30725-22.57375-38.49494-59.57023-127.13477-68.18901S0,89.34567,0,89.34567c0,0,190.22989-63.18338,290.76505-55.60659s101.62539,20.07212,173.1226-15.12215,115.83355,152.24851,115.83355,152.24851l-32.59213,267.16254Z"/><path id="Path_470" class="cls-10" d="M553.12907,423.81216s-193.49067,10.60772-260.30725-22.57375-38.49494-59.57023-127.13477-68.18901S6,75.12985,6,75.12985c0,0,190.22989-63.18338,290.76505-55.60659s101.62539,20.07212,173.1226-15.12215,115.83355,152.24851,115.83355,152.24851l-32.59213,267.16254Z"/><circle id="Ellipse_45" class="cls-4" cx="357.48394" cy="380.13274" r="9"/><circle id="Ellipse_43" class="cls-2" cx="255.48394" cy="67.60574" r="9"/><g id="Path_157"><path class="cls-1" d="M357.00868,168.70603c-1.2627-.00049-2.50879-.01416-3.74121-.0415l.11133-4.99902c1.19531.02637,2.40625.04004,3.63184.04053l-.00195,5ZM341.11219,167.91892c-4.13379-.42432-8.19531-1.0293-12.07227-1.79834l.97266-4.9043c3.72461.73877,7.63086,1.32031,11.60938,1.729l-.50977,4.97363ZM317.17469,163.10887c-3.96973-1.24609-7.82812-2.71777-11.46875-4.37451l2.07031-4.55078c3.45508,1.57178,7.12109,2.96973,10.89648,4.15479l-1.49805,4.77051ZM294.86805,152.89695c-3.48828-2.20068-6.83057-4.66016-9.93457-7.31006l3.24609-3.80273c2.92236,2.49512,6.07031,4.81104,9.35645,6.88428l-2.66797,4.22852ZM276.15223,136.91111c-2.6792-3.06104-5.18604-6.36963-7.45117-9.8335l4.18457-2.73633c2.13818,3.26953,4.50293,6.39062,7.0293,9.27686l-3.7627,3.29297ZM262.65223,116.33885c-1.75439-3.64844-3.31689-7.48389-4.64453-11.40039l4.73535-1.60547c1.26318,3.72607,2.74854,7.37256,4.41504,10.83887l-4.50586,2.16699ZM254.74452,93.06541c-1.5625-7.34912-1.75195-12.16748-1.75928-12.36914l4.99707-.18066-2.49854.09033,2.49854-.09229c.00146.04541.18848,4.62451,1.65283,11.51172l-4.89062,1.04004Z"/></g><g id="Path_158"><path class="cls-1" d="M256.08338,267.70554h-.12744l.00391-5c1.22852-.00293,2.43359-.0127,3.62842-.03906l.1123,4.99805c-1.19141.02734-2.39746.04102-3.61719.04102ZM271.85682,266.91941l-.5127-4.97461c3.9834-.41016,7.88965-.99219,11.61084-1.72949l.97266,4.9043c-3.87305.76758-7.93408,1.37305-12.0708,1.7998ZM295.79188,262.10887l-1.49707-4.77148c3.77148-1.18262,7.4375-2.58105,10.89648-4.1543l2.07031,4.55078c-3.64453,1.6582-7.50391,3.12988-11.46973,4.375ZM318.0995,251.89695l-2.66797-4.22852c3.28516-2.07324,6.43359-4.38965,9.35645-6.88477l3.24609,3.80273c-3.10449,2.65039-6.44727,5.11035-9.93457,7.31055ZM336.81434,235.91062l-3.76172-3.29297c2.52539-2.88379,4.89062-6.00488,7.0293-9.27734l4.18555,2.73633c-2.26758,3.4668-4.77441,6.77539-7.45312,9.83398ZM350.31434,215.34031l-4.50586-2.16797c1.66602-3.46191,3.15137-7.10889,4.41699-10.83936l4.73438,1.60547c-1.3291,3.92188-2.89258,7.7583-4.64551,11.40186ZM358.22352,192.06541l-4.89062-1.04004c1.46387-6.88721,1.65137-11.46631,1.65332-11.51172l4.99609.18262c-.00684.20166-.19629,5.02002-1.75879,12.36914Z"/></g><g id="Path_159"><path class="cls-1" d="M344.39735,382.63035c-.2002-.00684-4.99414-.18652-12.3584-1.65527l.97852-4.9043c6.92969,1.38281,11.50977,1.56152,11.55469,1.56348l-.1748,4.99609ZM320.12977,377.91355c-3.93848-1.24512-7.80566-2.70996-11.49512-4.35449l2.03516-4.56641c3.51758,1.56738,7.20801,2.96484,10.96777,4.15332l-1.50781,4.76758ZM297.71717,367.87644c-3.55371-2.14258-6.95703-4.5127-10.11475-7.04492l3.12793-3.90039c2.98486,2.39355,6.2041,4.63477,9.56787,6.66211l-2.58105,4.2832ZM278.54335,352.45652c-2.80176-2.98828-5.41602-6.21191-7.76904-9.58105l4.09961-2.86328c2.21631,3.17383,4.67822,6.20996,7.31689,9.02441l-3.64746,3.41992ZM264.45106,332.30125c-1.82031-3.58398-3.44678-7.38574-4.83447-11.2998l4.71289-1.66992c1.31592,3.71094,2.85645,7.31348,4.57959,10.70605l-4.45801,2.26367ZM256.20741,309.22996c-.88574-3.85938-1.59863-7.9082-2.11865-12.03516l4.96094-.625c.49902,3.96191,1.18262,7.84473,2.03076,11.54102l-4.87305,1.11914ZM253.10292,285.04734c-.0791-2.02637-.11914-4.10547-.11865-6.18164l5,.00195c-.00049,2.00977.03809,4.02344.11475,5.98438l-4.99609.19531Z"/></g><circle id="Ellipse_42" class="cls-12" cx="357.48394" cy="166.60573" r="9"/><circle id="Ellipse_44" class="cls-13" cx="255.48394" cy="265.60573" r="9"/><path id="Path_295" class="cls-4" d="M435.33995,257.60573h-43.6c-5.03731-.02802-9.14358,4.03281-9.1716,9.07012-.00058.10397.00062.20795.0036.31188.039,1.032.078,2.063.136,3.075h-20.553c-2.57364-.00608-4.66492,2.07533-4.671,4.64897-.00002.00734-.00002.01468,0,.02203,0,18.024,6.52,30.559,15.279,39.065,8.623,8.389,19.133,12.613,26.88,14.754,4.555,1.265,7.669,5.061,7.669,8.876-.00441,4.07237-3.30462,7.37259-7.377,7.377h-5.08c-3.43991,0-6.2285,2.7886-6.2285,6.2285s2.78859,6.2285,6.2285,6.2285h37.37099c3.4399,0,6.2285-2.7886,6.2285-6.2285s-2.7886-6.2285-6.2285-6.2285h-5.08c-4.07237-.00441-7.37259-3.30463-7.377-7.377,0-3.815,3.095-7.63,7.669-8.876,7.766-2.141,18.277-6.365,26.9-14.754,8.739-8.506,15.26-21.041,15.26-39.064.00608-2.57364-2.07533-4.66492-4.64897-4.671-.00735-.00002-.01469-.00002-.02203,0h-20.556c.058-1.012.1-2.024.136-3.075.14478-5.03531-3.81979-9.2346-8.85509-9.37937-.10394-.00299-.20792-.0042-.3119-.00363ZM367.00194,279.40573h16.428c1.771,17.537,5.683,29.254,10.1,37.1-5.26852-2.26374-10.09233-5.44666-14.246-9.4-6.229-6.056-11.289-14.8-12.263-27.7h-.019ZM447.81694,307.10573c-4.15425,3.95356-8.97876,7.13649-14.248,9.4,4.418-7.844,8.331-19.561,10.1-37.1h16.428c-.993,12.9-6.053,21.644-12.262,27.7h-.018Z"/><g id="Group_234"><g class="cls-15"><g id="Group_233"><path id="Path_461" class="cls-11" d="M372.48394,128.98174s3.241-29.243,3.444-30.017,4.056-28.729,4.056-28.729l-2.841-20.459-4.659-18.84,8.711-8.913,14.589-10.534,14.986-6.888h5.064v5.47l4.457,6.685,6.077,11.952,3.444,10.331,1.823,22.688,3.039,27.788v28.255l-1.418,17.491-60.772-6.28001Z"/><path id="Path_462" class="cls-11" d="M379.57394,122.10774l1.823-13.57201,4.66-37.47499-2.633-14.99-4.862-18.84,33.019-22.08,10.736,20.46,4.051,12.56,1.013,16.611,1.215,45.174v19.244"/><path id="Path_463" class="cls-12" d="M430.13294,129.19775h-3.072v-19.224l-1.214-45.127-1-16.391-3.951-12.25001-9.881-18.83-30.694,20.525,4.6,17.843.01.06,2.673,15.217-4.69,37.71901-1.823,13.57201-3.045-.409,1.83-13.56403,4.63-37.24001-2.583-14.7-5.121-19.84,35.345-23.63599,11.592,22.089,4.152,12.87,1.027,16.857,1.215,45.189v19.27Z"/><line id="Line_217" class="cls-6" x1="382.58494" y1="52.82174" x2="392.28594" y2="48.72574"/><rect id="Rectangle_340" class="cls-12" x="382.16967" y="49.23765" width="10.52769" height="3.07133" transform="translate(10.77393 154.7455) rotate(-22.89759)"/><line id="Line_218" class="cls-6" x1="385.85794" y1="69.93274" x2="395.32394" y2="66.80574"/><rect id="Rectangle_341" class="cls-12" x="385.60719" y="66.83296" width="9.969" height="3.072" transform="translate(-1.73549 125.94993) rotate(-18.278)"/><line id="Line_219" class="cls-6" x1="383.76394" y1="89.49874" x2="394.56394" y2="86.86074"/><rect id="Rectangle_342" class="cls-12" x="383.60552" y="86.64447" width="11.1125" height="3.07048" transform="translate(-9.81044 94.79182) rotate(-13.71647)"/><line id="Line_220" class="cls-6" x1="381.64894" y1="106.50974" x2="393.34894" y2="104.33174"/><rect id="Rectangle_343" class="cls-12" x="381.54854" y="103.88492" width="11.901" height="3.072" transform="translate(-12.74798 72.68873) rotate(-10.544)"/><line id="Line_221" class="cls-6" x1="421.04995" y1="33.19574" x2="410.66895" y2="41.12974"/><rect id="Rectangle_344" class="cls-12" x="409.32631" y="35.62615" width="13.066" height="3.072" transform="translate(62.88039 260.15513) rotate(-37.389)"/><line id="Line_222" class="cls-6" x1="426.36795" y1="48.16874" x2="416.89795" y2="54.04374"/><rect id="Rectangle_345" class="cls-12" x="416.06098" y="49.57072" width="11.14528" height="3.07235" transform="translate(36.35582 229.84648) rotate(-31.79891)"/><line id="Line_223" class="cls-6" x1="427.47794" y1="68.36874" x2="417.65794" y2="69.93174"/><rect id="Rectangle_346" class="cls-12" x="417.59559" y="67.61399" width="9.944" height="3.072" transform="translate(-5.61653 67.29178) rotate(-9.045)"/><rect id="Rectangle_347" class="cls-12" x="415.22694" y="86.64274" width="12.251" height="3.072"/><rect id="Rectangle_348" class="cls-12" x="416.89795" y="108.41774" width="11.699" height="3.072"/><path id="Path_464" class="cls-11" d="M402.45996,125.90575l2.431-36.40799,1.215-22.69199v-9.72299l-6.229-13.67401"/><path id="Path_465" class="cls-12" d="M403.99795,126.00972l-3.065-.20001,2.42999-36.39999,1.213-22.642v-9.349l-6.091-13.37,2.8-1.27399,6.367,13.97699v10.13901l-1.217,22.71301-2.437,36.40598Z"/></g></g></g><g id="Group_236"><g class="cls-14"><g id="Group_235"><path id="Path_466" class="cls-3" d="M187.14295,155.77274h0v-12.728c-.00166-1.94563-1.57936-3.522-3.525-3.522h-40.507c-1.94563,0-3.52334,1.57637-3.525,3.522v40.507c0,1.9468,1.57819,3.525,3.525,3.525h12.728c0-4.15622,3.36928-7.5255,7.5255-7.5255s7.5255,3.36928,7.5255,7.5255h12.728c1.9468,0,3.525-1.57819,3.525-3.525h0v-12.729c4.15622,0,7.5255-3.36928,7.5255-7.5255s-3.36928-7.5255-7.5255-7.5255"/><path id="Path_467" class="cls-9" d="M226.12996,187.07674h12.72803c1.94678.00002,3.52502-1.57817,3.52502-3.52497v-40.50703c-.00165-1.94567-1.57941-3.52205-3.52509-3.522h-40.50696c-1.94678-.00001-3.52502,1.57817-3.52502,3.52498v12.72502c4.15619,0,7.52551,3.36928,7.52551,7.5255s-3.36932,7.5255-7.52551,7.5255v12.728c0,1.9468,1.57819,3.525,3.52502,3.525h12.72803c0,4.15623,3.36926,7.52551,7.52551,7.52551s7.52551-3.36929,7.52551-7.52551h0"/><path id="Path_468" class="cls-13" d="M155.97895,194.60177h-12.728c-1.9468,0-3.525,1.57819-3.525,3.52502h0v40.50702c-.00271,1.94678,1.57329,3.52722,3.52009,3.52991h40.51191c1.9468,0,3.525-1.57819,3.525-3.52502h0v-12.73297c-4.15623,0-7.52551-3.36926-7.52551-7.52551s3.36929-7.52551,7.52551-7.52551v-12.72797c.00002-1.94678-1.57817-3.52502-3.52497-3.52502h-12.72803c0-4.15619-3.36928-7.52551-7.5255-7.52551s-7.5255,3.36932-7.5255,7.52551h0"/><path id="Path_469" class="cls-5" d="M194.82496,225.90573h0v12.72803c0,1.94678,1.57825,3.52496,3.52502,3.52496h40.508c1.94678,0,3.52502-1.57819,3.52502-3.52496v-40.50702c0-1.94678-1.57819-3.52502-3.52496-3.52502h-12.72906c0,4.15625-3.36926,7.52551-7.52551,7.52551s-7.52551-3.36926-7.52551-7.52551h-12.72699c-1.94678,0-3.52502,1.57819-3.52502,3.52496v12.72809c-4.15625,0-7.52551,3.36926-7.52551,7.52551s3.36926,7.52551,7.52551,7.52551"/></g></g></g><path class="cls-8" d="M141.92128,67.41062c.80811.41406,2.05029.82812,3.33154.82812,1.37988,0,2.10938-.57178,2.10938-1.43945,0-.82764-.63086-1.30078-2.22754-1.87256-2.20801-.76904-3.64746-1.99121-3.64746-3.92334,0-2.26709,1.89258-4.00195,5.02734-4.00195,1.49805,0,2.60254.31543,3.39062.67041l-.66992,2.4248c-.53223-.25635-1.47852-.63086-2.77979-.63086s-1.93213.59131-1.93213,1.28125c0,.84814.74902,1.22266,2.46436,1.87305,2.34619.86768,3.4502,2.08984,3.4502,3.9624,0,2.22803-1.71533,4.12061-5.3623,4.12061-1.51807,0-3.0166-.39453-3.76562-.80859l.61133-2.48389Z"/><path class="cls-8" d="M155.62294,58.10545v2.76025h2.14844v2.20801h-2.14844v3.48926c0,1.16309.27588,1.69531,1.18262,1.69531.37451,0,.67041-.03906.88721-.07861l.01953,2.26709c-.39404.15771-1.104.25635-1.95166.25635-.96582,0-1.77441-.33545-2.24707-.82812-.55225-.57178-.82812-1.49854-.82812-2.8584v-3.94287h-1.28174v-2.20801h1.28174v-2.08984l2.9375-.67041Z"/><path class="cls-8" d="M164.9867,70.50584l-.17725-.96582h-.05908c-.63086.76855-1.6167,1.18262-2.76025,1.18262-1.95166,0-3.11475-1.41943-3.11475-2.95703,0-2.50391,2.24756-3.70654,5.65771-3.68652v-.13818c0-.5127-.27588-1.24219-1.75439-1.24219-.98584,0-2.03076.33545-2.66162.72949l-.55176-1.93164c.67041-.375,1.99121-.84766,3.74561-.84766,3.21338,0,4.23877,1.89258,4.23877,4.15967v3.35107c0,.92676.03955,1.81396.1377,2.34619h-2.70068ZM164.63172,65.95164c-1.57715-.01953-2.79932.35498-2.79932,1.51807,0,.76904.5127,1.14355,1.18311,1.14355.74902,0,1.36035-.49268,1.55713-1.104.03955-.15771.05908-.33496.05908-.5127v-1.04492Z"/><path class="cls-8" d="M169.91542,64.03953c0-1.41943-.03955-2.34619-.0791-3.17383h2.58252l.09863,1.77393h.0791c.49268-1.39941,1.67578-1.99072,2.60205-1.99072.27637,0,.41406,0,.63086.03906v2.81934c-.2168-.03955-.47314-.0791-.80811-.0791-1.104,0-1.85303.5918-2.05029,1.51807-.03955.19727-.05908.43408-.05908.67041v4.88916h-2.99658v-6.46631Z"/><path class="cls-8" d="M181.17225,58.10545v2.76025h2.14893v2.20801h-2.14893v3.48926c0,1.16309.27588,1.69531,1.18262,1.69531.37451,0,.67041-.03906.88721-.07861l.01953,2.26709c-.39404.15771-1.104.25635-1.95166.25635-.96582,0-1.77393-.33545-2.24756-.82812-.55176-.57178-.82764-1.49854-.82764-2.8584v-3.94287h-1.28174v-2.20801h1.28174v-2.08984l2.9375-.67041Z"/><path class="cls-8" d="M194.51844,70.50584l-.17725-.96582h-.05908c-.63086.76855-1.6167,1.18262-2.76025,1.18262-1.95166,0-3.11475-1.41943-3.11475-2.95703,0-2.50391,2.24756-3.70654,5.6582-3.68652v-.13818c0-.5127-.27637-1.24219-1.75488-1.24219-.98584,0-2.03027.33545-2.66113.72949l-.55225-1.93164c.67041-.375,1.99121-.84766,3.74561-.84766,3.21338,0,4.23877,1.89258,4.23877,4.15967v3.35107c0,.92676.03955,1.81396.13818,2.34619h-2.70117ZM194.16346,65.95164c-1.57715-.01953-2.79932.35498-2.79932,1.51807,0,.76904.5127,1.14355,1.18311,1.14355.74902,0,1.35986-.49268,1.55713-1.104.03955-.15771.05908-.33496.05908-.5127v-1.04492Z"/><path class="cls-8" d="M203.42958,63.9409c0-1.20264-.03955-2.22754-.0791-3.0752h2.60254l.1377,1.3208h.05957c.39404-.61133,1.37988-1.5376,2.97656-1.5376,1.97168,0,3.4502,1.30078,3.4502,4.13965v5.71729h-2.99658v-5.34277c0-1.2417-.43359-2.08936-1.51807-2.08936-.82812,0-1.3208.57129-1.51807,1.12354-.07861.17725-.11816.47314-.11816.74902v5.55957h-2.99658v-6.56494Z"/><path class="cls-8" d="M217.28895,66.64207c.09863,1.2417,1.3208,1.83301,2.7207,1.83301,1.0249,0,1.85303-.1377,2.66113-.39404l.39453,2.03076c-.98584.39404-2.18848.59131-3.48975.59131-3.27246,0-5.14551-1.89258-5.14551-4.90918,0-2.44434,1.51807-5.14502,4.86963-5.14502,3.11475,0,4.29785,2.4248,4.29785,4.81006,0,.5127-.05908.96582-.09863,1.18311h-6.20996ZM220.81776,64.59129c0-.729-.31543-1.95166-1.69531-1.95166-1.26172,0-1.77441,1.14355-1.85352,1.95166h3.54883Z"/><path class="cls-8" d="M227.34315,60.8657l.76904,3.94287c.19727,1.00537.39404,2.06982.55176,3.17383h.03955c.19727-1.104.47314-2.20801.70996-3.1543l1.0249-3.9624h2.36572l.96631,3.84424c.25586,1.08398.51221,2.16846.70947,3.27246h.03955c.1377-1.104.33496-2.18848.55176-3.29248l.82812-3.82422h2.9375l-2.95703,9.64014h-2.81934l-.90674-3.39111c-.23682-.94629-.41406-1.81348-.61133-2.99609h-.03955c-.17725,1.20215-.37451,2.08936-.63086,2.99609l-.96582,3.39111h-2.81934l-2.79932-9.64014h3.05566Z"/><path class="cls-8" d="M173.38514,87.59812c0-1.20264-.03955-2.22754-.0791-3.0752h2.52344l.13818,1.30078h.05908c.41406-.61084,1.26172-1.51758,2.91797-1.51758,1.2417,0,2.22754.63086,2.6416,1.63623h.03955c.35449-.49316.78857-.88721,1.2417-1.16357.53223-.31543,1.12402-.47266,1.8335-.47266,1.85303,0,3.25293,1.30078,3.25293,4.1792v5.67773h-2.91797v-5.24414c0-1.39941-.45312-2.20801-1.41895-2.20801-.69043,0-1.18311.47314-1.38037,1.04492-.07861.2168-.11816.53223-.11816.76904v5.63818h-2.91748v-5.40186c0-1.22217-.43408-2.05029-1.38037-2.05029-.76855,0-1.22217.59131-1.39941,1.08447-.09863.23633-.11865.5127-.11865.74902v5.61865h-2.91748v-6.56494Z"/><path class="cls-8" d="M192.21229,84.52293l1.43896,4.73145c.15771.57129.35498,1.28125.47314,1.79395h.05908c.13818-.5127.2959-1.24219.43359-1.79395l1.18311-4.73145h3.21338l-2.24756,6.34766c-1.37988,3.82471-2.30664,5.3623-3.39062,6.32861-1.04492.90674-2.14893,1.22217-2.89795,1.3208l-.63086-2.54297c.37451-.05957.84766-.23682,1.30078-.5127.45361-.23682.94629-.70996,1.24219-1.20264.09863-.13818.15771-.2959.15771-.43359,0-.09863-.01953-.25635-.13818-.49316l-3.52881-8.81201h3.33203Z"/><path class="cls-8" d="M199.94032,91.54099c.55225.33545,1.6958.72949,2.58301.72949.90674,0,1.28125-.31543,1.28125-.80811,0-.49316-.2959-.72949-1.41943-1.104-1.99121-.67041-2.76025-1.75488-2.74023-2.89795,0-1.79443,1.5376-3.1543,3.92334-3.1543,1.12354,0,2.12891.25586,2.72021.55176l-.53223,2.06982c-.43359-.23633-1.26172-.55176-2.08984-.55176-.729,0-1.14307.29541-1.14307.78857,0,.45312.37451.68994,1.55713,1.104,1.8335.63086,2.60254,1.55713,2.62207,2.97705,0,1.79395-1.41943,3.11475-4.1792,3.11475-1.26172,0-2.38574-.27588-3.11523-.67041l.53223-2.14893Z"/><path class="cls-8" d="M211.86756,81.76267v2.76025h2.14893v2.20801h-2.14893v3.48926c0,1.16309.27588,1.69531,1.18262,1.69531.37451,0,.67041-.03906.88721-.07861l.01953,2.26709c-.39404.15771-1.104.25635-1.95166.25635-.96582,0-1.77393-.33545-2.24756-.82812-.55176-.57178-.82764-1.49854-.82764-2.8584v-3.94287h-1.28174v-2.20801h1.28174v-2.08984l2.9375-.67041Z"/><path class="cls-8" d="M217.95936,90.29929c.09863,1.2417,1.3208,1.83301,2.72021,1.83301,1.02539,0,1.85352-.1377,2.66162-.39404l.39453,2.03076c-.98584.39404-2.18848.59131-3.48975.59131-3.27246,0-5.14551-1.89258-5.14551-4.90918,0-2.44434,1.51807-5.14502,4.86963-5.14502,3.11475,0,4.29785,2.4248,4.29785,4.81006,0,.5127-.05908.96582-.09863,1.18311h-6.20996ZM221.48817,88.24851c0-.729-.31543-1.95166-1.69531-1.95166-1.26172,0-1.77441,1.14355-1.85352,1.95166h3.54883Z"/><path class="cls-8" d="M226.0619,87.69676c0-1.41943-.03955-2.34619-.0791-3.17383h2.58252l.09863,1.77393h.0791c.49268-1.39941,1.67578-1.99072,2.60205-1.99072.27637,0,.41406,0,.63086.03906v2.81934c-.2168-.03955-.47314-.0791-.80811-.0791-1.104,0-1.85303.5918-2.05029,1.51807-.03955.19727-.05908.43408-.05908.67041v4.88916h-2.99658v-6.46631Z"/><path class="cls-8" d="M236.15516,84.52293l1.43896,4.73145c.15771.57129.35498,1.28125.47314,1.79395h.05908c.13818-.5127.2959-1.24219.43359-1.79395l1.18311-4.73145h3.21338l-2.24756,6.34766c-1.37988,3.82471-2.30664,5.3623-3.39062,6.32861-1.04492.90674-2.14893,1.22217-2.89795,1.3208l-.63086-2.54297c.37451-.05957.84766-.23682,1.30078-.5127.45361-.23682.94629-.70996,1.24219-1.20264.09863-.13818.15771-.2959.15771-.43359,0-.09863-.01953-.25635-.13818-.49316l-3.52881-8.81201h3.33203Z"/><path class="cls-8" d="M375.65614,173.07029l-4.25781-13.2876h3.29199l1.61719,5.61865c.45312,1.57715.86719,3.09521,1.18262,4.75146h.05859c.33594-1.59717.75-3.17432,1.20312-4.69238l1.69531-5.67773h3.19336l-4.47461,13.2876h-3.50977Z"/><path class="cls-8" d="M387.5243,160.749c0,.82764-.63086,1.49805-1.61621,1.49805-.94629,0-1.57715-.67041-1.55762-1.49805-.01953-.86768.61133-1.51807,1.57715-1.51807s1.57715.65039,1.59668,1.51807ZM384.42958,173.07029v-9.64014h2.99609v9.64014h-2.99609Z"/><path class="cls-8" d="M389.81044,170.44822c.55273.33545,1.69629.72949,2.58301.72949.90723,0,1.28125-.31543,1.28125-.80811,0-.49316-.2959-.72949-1.41895-1.104-1.99121-.67041-2.76074-1.75488-2.74023-2.89795,0-1.79443,1.53711-3.1543,3.92285-3.1543,1.12402,0,2.12891.25586,2.7207.55176l-.53223,2.06982c-.43359-.23633-1.26172-.55176-2.08984-.55176-.72949,0-1.14355.29541-1.14355.78857,0,.45312.375.68994,1.55762,1.104,1.83301.63086,2.60254,1.55713,2.62207,2.97705,0,1.79395-1.41992,3.11475-4.17969,3.11475-1.26172,0-2.38574-.27588-3.11523-.67041l.53223-2.14893Z"/><path class="cls-8" d="M401.48231,160.749c0,.82764-.63086,1.49805-1.61719,1.49805-.94629,0-1.57715-.67041-1.55762-1.49805-.01953-.86768.61133-1.51807,1.57715-1.51807.9668,0,1.57715.65039,1.59766,1.51807ZM398.38661,173.07029v-9.64014h2.99707v9.64014h-2.99707Z"/><path class="cls-8" d="M407.13954,160.6699v2.76025h2.14844v2.20801h-2.14844v3.48926c0,1.16309.27637,1.69531,1.18262,1.69531.375,0,.6709-.03906.8877-.07861l.01953,2.26709c-.39453.15771-1.10449.25635-1.95215.25635-.96582,0-1.77441-.33545-2.24707-.82812-.55176-.57178-.82812-1.49854-.82812-2.8584v-3.94287h-1.28125v-2.20801h1.28125v-2.08984l2.9375-.67041Z"/><path class="cls-8" d="M420.48622,173.07029l-.17773-.96582h-.05859c-.63086.76855-1.61719,1.18262-2.76074,1.18262-1.95117,0-3.11426-1.41943-3.11426-2.95703,0-2.50391,2.24707-3.70654,5.65723-3.68652v-.13818c0-.5127-.27539-1.24219-1.75391-1.24219-.98633,0-2.03125.33545-2.66211.72949l-.55176-1.93164c.6709-.375,1.99121-.84766,3.74609-.84766,3.21289,0,4.23828,1.89258,4.23828,4.15967v3.35107c0,.92676.04004,1.81396.1377,2.34619h-2.7002ZM420.13075,168.51609c-1.57715-.01953-2.79883.35498-2.79883,1.51807,0,.76904.5127,1.14355,1.18262,1.14355.74902,0,1.36035-.49268,1.55762-1.104.03906-.15771.05859-.33496.05859-.5127v-1.04492Z"/><path class="cls-8" d="M436.63172,172.83347c-.53223.23682-1.53711.43408-2.68066.43408-3.11523,0-5.10645-1.89258-5.10645-4.92871,0-2.81934,1.93262-5.12549,5.52051-5.12549.78809,0,1.65625.1377,2.28711.37451l-.47363,2.22754c-.35449-.15771-.88672-.2959-1.67578-.2959-1.57715,0-2.60254,1.12402-2.58203,2.70117,0,1.77393,1.18262,2.70068,2.6416,2.70068.70996,0,1.26172-.11816,1.71484-.2959l.35449,2.20801Z"/><path class="cls-8" d="M447.37684,169.97508c0,1.26172.03906,2.28711.07812,3.09521h-2.60156l-.13867-1.36035h-.05859c-.375.59131-1.28125,1.57715-3.0166,1.57715-1.95215,0-3.39062-1.22217-3.39062-4.19922v-5.65771h3.01562v5.18457c0,1.3999.4541,2.24756,1.49902,2.24756.82812,0,1.30078-.57178,1.49805-1.04492.0791-.17725.09863-.41406.09863-.65039v-5.73682h3.0166v6.54492Z"/><path class="cls-8" d="M449.78114,159.07322h2.99707v13.99707h-2.99707v-13.99707Z"/><path class="cls-8" d="M458.55458,160.6699v2.76025h2.14844v2.20801h-2.14844v3.48926c0,1.16309.27539,1.69531,1.18262,1.69531.37402,0,.66992-.03906.88672-.07861l.01953,2.26709c-.39355.15771-1.10352.25635-1.95117.25635-.96582,0-1.77441-.33545-2.24805-.82812-.55176-.57178-.82715-1.49854-.82715-2.8584v-3.94287h-1.28223v-2.20801h1.28223v-2.08984l2.9375-.67041Z"/><path class="cls-8" d="M471.52626,169.97508c0,1.26172.03906,2.28711.07812,3.09521h-2.60156l-.13867-1.36035h-.05859c-.375.59131-1.28125,1.57715-3.0166,1.57715-1.95215,0-3.39062-1.22217-3.39062-4.19922v-5.65771h3.01562v5.18457c0,1.3999.4541,2.24756,1.49902,2.24756.82812,0,1.30078-.57178,1.49805-1.04492.0791-.17725.09863-.41406.09863-.65039v-5.73682h3.0166v6.54492Z"/><path class="cls-8" d="M473.93153,166.60398c0-1.41943-.04004-2.34619-.0791-3.17383h2.58203l.09863,1.77393h.0791c.49316-1.39941,1.67578-1.99072,2.60254-1.99072.27637,0,.41406,0,.63086.03906v2.81934c-.2168-.03955-.47363-.0791-.80859-.0791-1.10352,0-1.85254.5918-2.0498,1.51807-.04004.19727-.05957.43408-.05957.67041v4.88916h-2.99609v-6.46631Z"/><path class="cls-8" d="M486.68641,173.07029l-.17773-.96582h-.05859c-.63086.76855-1.61719,1.18262-2.76074,1.18262-1.95117,0-3.11426-1.41943-3.11426-2.95703,0-2.50391,2.24707-3.70654,5.65723-3.68652v-.13818c0-.5127-.27539-1.24219-1.75391-1.24219-.98633,0-2.03125.33545-2.66211.72949l-.55176-1.93164c.6709-.375,1.99121-.84766,3.74609-.84766,3.21289,0,4.23828,1.89258,4.23828,4.15967v3.35107c0,.92676.04004,1.81396.1377,2.34619h-2.7002ZM486.33094,168.51609c-1.57715-.01953-2.79883.35498-2.79883,1.51807,0,.76904.5127,1.14355,1.18262,1.14355.74902,0,1.36035-.49268,1.55762-1.104.03906-.15771.05859-.33496.05859-.5127v-1.04492Z"/><path class="cls-8" d="M491.61512,159.07322h2.99609v13.99707h-2.99609v-13.99707Z"/><path class="cls-8" d="M372.42372,182.73045h2.99609v5.5h.04004c.31543-.41357.70898-.729,1.18262-.98535.43359-.23682,1.00488-.37451,1.55762-.37451,1.91211,0,3.37109,1.3208,3.37109,4.21875v5.63818h-2.99707v-5.30322c0-1.26172-.43359-2.12891-1.55762-2.12891-.78809,0-1.28125.51221-1.49805,1.04492-.0791.19678-.09863.45312-.09863.66992v5.71729h-2.99609v-13.99707Z"/><path class="cls-8" d="M386.28309,192.86375c.09863,1.2417,1.32031,1.83301,2.71973,1.83301,1.02539,0,1.85352-.1377,2.66211-.39404l.39453,2.03076c-.98633.39404-2.18848.59131-3.49023.59131-3.27246,0-5.14551-1.89258-5.14551-4.90918,0-2.44434,1.51855-5.14502,4.87012-5.14502,3.11426,0,4.29785,2.4248,4.29785,4.81006,0,.5127-.05957.96582-.09863,1.18311h-6.20996ZM389.81141,190.81297c0-.729-.31543-1.95166-1.69531-1.95166-1.26172,0-1.77441,1.14355-1.85352,1.95166h3.54883Z"/><path class="cls-8" d="M394.38563,190.26121c0-1.41943-.04004-2.34619-.0791-3.17383h2.58203l.09863,1.77393h.0791c.49316-1.39941,1.67578-1.99072,2.60254-1.99072.27637,0,.41406,0,.63086.03906v2.81934c-.2168-.03955-.47363-.0791-.80859-.0791-1.10352,0-1.85254.5918-2.0498,1.51807-.04004.19727-.05957.43408-.05957.67041v4.88916h-2.99609v-6.46631Z"/><path class="cls-8" d="M404.97157,184.40623c0,.82764-.63086,1.49805-1.61621,1.49805-.94629,0-1.57715-.67041-1.55762-1.49805-.01953-.86768.61133-1.51807,1.57715-1.51807s1.57715.65039,1.59668,1.51807ZM401.87684,196.72752v-9.64014h2.99609v9.64014h-2.99609Z"/><path class="cls-8" d="M410.62977,184.32713v2.76025h2.14844v2.20801h-2.14844v3.48926c0,1.16309.27539,1.69531,1.18262,1.69531.37402,0,.66992-.03906.88672-.07861l.01953,2.26709c-.39355.15771-1.10352.25635-1.95117.25635-.96582,0-1.77441-.33545-2.24805-.82812-.55176-.57178-.82715-1.49854-.82715-2.8584v-3.94287h-1.28223v-2.20801h1.28223v-2.08984l2.9375-.67041Z"/><path class="cls-8" d="M419.99403,196.72752l-.17773-.96582h-.05859c-.63086.76855-1.61719,1.18262-2.76074,1.18262-1.95117,0-3.11426-1.41943-3.11426-2.95703,0-2.50391,2.24707-3.70654,5.65723-3.68652v-.13818c0-.5127-.27539-1.24219-1.75391-1.24219-.98633,0-2.03125.33545-2.66211.72949l-.55176-1.93164c.6709-.375,1.99121-.84766,3.74609-.84766,3.21289,0,4.23828,1.89258,4.23828,4.15967v3.35107c0,.92676.04004,1.81396.1377,2.34619h-2.7002ZM419.63856,192.17332c-1.57715-.01953-2.79883.35498-2.79883,1.51807,0,.76904.5127,1.14355,1.18262,1.14355.74902,0,1.36035-.49268,1.55762-1.104.03906-.15771.05859-.33496.05859-.5127v-1.04492Z"/><path class="cls-8" d="M434.12879,187.08738c-.03906.61084-.0791,1.41943-.0791,2.8584v5.38184c0,1.85352-.37402,3.37109-1.45801,4.3374-1.06543.90674-2.50391,1.18262-3.92383,1.18262-1.26172,0-2.60156-.25635-3.46973-.74902l.5918-2.26709c.61133.35498,1.67578.72949,2.7998.72949,1.41895,0,2.50293-.76904,2.50293-2.54297v-.63086h-.03906c-.57129.80811-1.49805,1.26172-2.60254,1.26172-2.38477,0-4.08105-1.93213-4.08105-4.71191,0-3.09521,2.01172-5.06641,4.37695-5.06641,1.32129,0,2.14844.57129,2.6416,1.35986h.04004l.09766-1.14307h2.60254ZM431.0536,191.01023c0-.19727-.01953-.39404-.05957-.55176-.2168-.78857-.78809-1.3208-1.61621-1.3208-1.08398,0-1.97168.98535-1.97168,2.74023,0,1.43896.70996,2.56299,1.97168,2.56299.76855,0,1.37988-.5127,1.57715-1.22266.0791-.2168.09863-.53223.09863-.78857v-1.41943Z"/><path class="cls-8" d="M438.76161,192.86375c.09863,1.2417,1.32129,1.83301,2.7207,1.83301,1.02539,0,1.85352-.1377,2.66113-.39404l.39453,2.03076c-.98535.39404-2.18848.59131-3.48926.59131-3.27246,0-5.14551-1.89258-5.14551-4.90918,0-2.44434,1.51758-5.14502,4.86914-5.14502,3.11523,0,4.29785,2.4248,4.29785,4.81006,0,.5127-.05859.96582-.09863,1.18311h-6.20996ZM442.2909,190.81297c0-.729-.31543-1.95166-1.69531-1.95166-1.26172,0-1.77441,1.14355-1.85352,1.95166h3.54883Z"/><path class="cls-8" d="M450.82704,194.10545c.55176.33545,1.69531.72949,2.58301.72949.90625,0,1.28125-.31543,1.28125-.80811,0-.49316-.2959-.72949-1.41992-1.104-1.99121-.67041-2.75977-1.75488-2.74023-2.89795,0-1.79443,1.53809-3.1543,3.92285-3.1543,1.12402,0,2.12988.25586,2.7207.55176l-.53223,2.06982c-.43359-.23633-1.26172-.55176-2.08984-.55176-.72949,0-1.14258.29541-1.14258.78857,0,.45312.37402.68994,1.55664,1.104,1.83398.63086,2.60254,1.55713,2.62207,2.97705,0,1.79395-1.41895,3.11475-4.17871,3.11475-1.26172,0-2.38574-.27588-3.11523-.67041l.53223-2.14893Z"/><path class="cls-8" d="M462.49794,184.40623c0,.82764-.63086,1.49805-1.61719,1.49805-.94629,0-1.57715-.67041-1.55762-1.49805-.01953-.86768.61133-1.51807,1.57715-1.51807.9668,0,1.57715.65039,1.59766,1.51807ZM459.40223,196.72752v-9.64014h2.99707v9.64014h-2.99707Z"/><path class="cls-8" d="M468.15516,184.32713v2.76025h2.14844v2.20801h-2.14844v3.48926c0,1.16309.27637,1.69531,1.18262,1.69531.375,0,.6709-.03906.8877-.07861l.01953,2.26709c-.39453.15771-1.10449.25635-1.95215.25635-.96582,0-1.77441-.33545-2.24707-.82812-.55176-.57178-.82812-1.49854-.82812-2.8584v-3.94287h-1.28125v-2.20801h1.28125v-2.08984l2.9375-.67041Z"/><path class="cls-8" d="M474.24696,192.86375c.09863,1.2417,1.32129,1.83301,2.7207,1.83301,1.02539,0,1.85352-.1377,2.66113-.39404l.39453,2.03076c-.98535.39404-2.18848.59131-3.48926.59131-3.27246,0-5.14551-1.89258-5.14551-4.90918,0-2.44434,1.51758-5.14502,4.86914-5.14502,3.11523,0,4.29785,2.4248,4.29785,4.81006,0,.5127-.05859.96582-.09863,1.18311h-6.20996ZM477.77626,190.81297c0-.729-.31543-1.95166-1.69531-1.95166-1.26172,0-1.77441,1.14355-1.85352,1.95166h3.54883Z"/><path class="cls-8" d="M106.80848,268.26512c.80811.41406,2.05029.82812,3.33154.82812,1.37988,0,2.10938-.57129,2.10938-1.43945,0-.82715-.63086-1.30078-2.22754-1.87207-2.20801-.76953-3.64746-1.99121-3.64746-3.92383,0-2.2666,1.89258-4.00195,5.02734-4.00195,1.49805,0,2.60254.31543,3.39062.6709l-.66992,2.4248c-.53223-.25684-1.47852-.63086-2.77979-.63086s-1.93213.59082-1.93213,1.28125c0,.84766.74902,1.22266,2.46436,1.87305,2.34619.86719,3.4502,2.08984,3.4502,3.96191,0,2.22852-1.71533,4.12109-5.3623,4.12109-1.51807,0-3.0166-.39453-3.76562-.80859l.61133-2.48438Z"/><path class="cls-8" d="M126.91639,266.43211c0,3.52832-2.50391,5.14551-5.08643,5.14551-2.81885,0-4.98779-1.85352-4.98779-4.96777,0-3.11523,2.05029-5.10645,5.14551-5.10645,2.95703,0,4.92871,2.03027,4.92871,4.92871ZM119.93739,266.53074c0,1.65625.68994,2.89746,1.97168,2.89746,1.16309,0,1.91211-1.16309,1.91211-2.89746,0-1.43945-.55176-2.89844-1.91211-2.89844-1.43945,0-1.97168,1.47852-1.97168,2.89844Z"/><path class="cls-8" d="M128.76991,257.36375h2.99658v13.99707h-2.99658v-13.99707Z"/><path class="cls-8" d="M136.41883,261.72019l1.30127,4.47559c.23633.80762.41406,1.57715.55176,2.3457h.05957c.15771-.78906.31543-1.51855.53223-2.3457l1.2417-4.47559h3.1543l-3.58789,9.64062h-2.99658l-3.50928-9.64062h3.25293Z"/><path class="cls-8" d="M146.65077,267.49656c.09863,1.24219,1.3208,1.83301,2.7207,1.83301,1.0249,0,1.85303-.1377,2.66113-.39355l.39453,2.03027c-.98584.39453-2.18848.5918-3.48975.5918-3.27246,0-5.14551-1.89258-5.14551-4.90918,0-2.44434,1.51807-5.14551,4.86963-5.14551,3.11475,0,4.29785,2.4248,4.29785,4.81055,0,.5127-.05908.96582-.09863,1.18262h-6.20996ZM150.17958,265.44578c0-.72852-.31543-1.95117-1.69531-1.95117-1.26172,0-1.77441,1.14355-1.85352,1.95117h3.54883Z"/><path class="cls-8" d="M158.73573,264.79539c0-1.20215-.03955-2.22754-.0791-3.0752h2.52344l.13818,1.30078h.05908c.41406-.61035,1.26172-1.51758,2.91797-1.51758,1.2417,0,2.22754.63086,2.6416,1.63672h.03955c.35449-.49316.78857-.8877,1.2417-1.16406.53223-.31543,1.12402-.47266,1.8335-.47266,1.85303,0,3.25293,1.30078,3.25293,4.17969v5.67773h-2.91748v-5.24414c0-1.39941-.45361-2.20801-1.41992-2.20801-.68994,0-1.18262.47266-1.37988,1.04492-.07861.2168-.11816.53223-.11816.76855v5.63867h-2.91797v-5.40234c0-1.22168-.43359-2.0498-1.37988-2.0498-.76855,0-1.22217.59082-1.39941,1.08398-.09863.23633-.11865.5127-.11865.74902v5.61914h-2.91748v-6.56543Z"/><path class="cls-8" d="M177.56288,261.72019l1.43896,4.73145c.15771.57129.35498,1.28125.47314,1.79395h.05908c.13818-.5127.2959-1.24219.43359-1.79395l1.18311-4.73145h3.21338l-2.24756,6.34766c-1.37988,3.8252-2.30664,5.3623-3.39062,6.3291-1.04492.90625-2.14893,1.22168-2.89795,1.32031l-.63086-2.54297c.37451-.05957.84766-.23633,1.30078-.5127.45361-.23633.94629-.70996,1.24219-1.20215.09863-.13867.15771-.2959.15771-.43359,0-.09863-.01953-.25684-.13818-.49316l-3.52881-8.8125h3.33203Z"/><path class="cls-8" d="M185.29042,268.73875c.55225.33496,1.6958.72949,2.58301.72949.90674,0,1.28125-.31543,1.28125-.80859s-.2959-.72949-1.41943-1.10352c-1.99121-.6709-2.76025-1.75488-2.74023-2.89844,0-1.79395,1.5376-3.1543,3.92334-3.1543,1.12354,0,2.12891.25586,2.72021.55176l-.53223,2.07031c-.43359-.23633-1.26172-.55176-2.08984-.55176-.729,0-1.14307.29492-1.14307.78809,0,.45312.37451.69043,1.55713,1.10449,1.8335.63086,2.60254,1.55664,2.62207,2.97656,0,1.79395-1.41943,3.11523-4.1792,3.11523-1.26172,0-2.38574-.27637-3.11523-.6709l.53223-2.14844Z"/><path class="cls-8" d="M197.21815,258.96043v2.75977h2.14844v2.20801h-2.14844v3.48926c0,1.16309.27588,1.69531,1.18262,1.69531.37451,0,.67041-.03906.88721-.07812l.01953,2.2666c-.39404.1582-1.104.25684-1.95166.25684-.96582,0-1.77441-.33594-2.24707-.82812-.55225-.57227-.82812-1.49902-.82812-2.8584v-3.94336h-1.28174v-2.20801h1.28174v-2.08984l2.9375-.66992Z"/><path class="cls-8" d="M203.30946,267.49656c.09863,1.24219,1.3208,1.83301,2.72021,1.83301,1.02539,0,1.85352-.1377,2.66162-.39355l.39453,2.03027c-.98584.39453-2.18848.5918-3.48975.5918-3.27246,0-5.14551-1.89258-5.14551-4.90918,0-2.44434,1.51807-5.14551,4.86963-5.14551,3.11475,0,4.29785,2.4248,4.29785,4.81055,0,.5127-.05908.96582-.09863,1.18262h-6.20996ZM206.83827,265.44578c0-.72852-.31543-1.95117-1.69531-1.95117-1.26172,0-1.77441,1.14355-1.85352,1.95117h3.54883Z"/><path class="cls-8" d="M211.41249,264.89402c0-1.41895-.03955-2.3457-.0791-3.17383h2.58301l.09814,1.77441h.0791c.49268-1.39941,1.67578-1.99121,2.60205-1.99121.27637,0,.41406,0,.63086.03906v2.81934c-.2168-.03906-.47314-.0791-.80811-.0791-1.104,0-1.85303.5918-2.05029,1.51855-.03955.19727-.05908.43359-.05908.66992v4.88965h-2.99658v-6.4668Z"/><path class="cls-8" d="M221.99891,259.03953c0,.82715-.63086,1.49805-1.6167,1.49805-.94629,0-1.57715-.6709-1.55762-1.49805-.01953-.86816.61133-1.51855,1.57715-1.51855.96631,0,1.57715.65039,1.59717,1.51855ZM218.9037,271.36082v-9.64062h2.99658v9.64062h-2.99658Z"/><path class="cls-8" d="M226.6117,267.49656c.09863,1.24219,1.3208,1.83301,2.7207,1.83301,1.0249,0,1.85303-.1377,2.66113-.39355l.39453,2.03027c-.98584.39453-2.18848.5918-3.48975.5918-3.27246,0-5.14551-1.89258-5.14551-4.90918,0-2.44434,1.51807-5.14551,4.86963-5.14551,3.11475,0,4.29785,2.4248,4.29785,4.81055,0,.5127-.05908.96582-.09863,1.18262h-6.20996ZM230.14051,265.44578c0-.72852-.31543-1.95117-1.69531-1.95117-1.26172,0-1.77441,1.14355-1.85352,1.95117h3.54883Z"/><path class="cls-8" d="M234.69471,268.73875c.55176.33496,1.69531.72949,2.58252.72949.90674,0,1.28125-.31543,1.28125-.80859s-.2959-.72949-1.41943-1.10352c-1.99121-.6709-2.75977-1.75488-2.74023-2.89844,0-1.79395,1.5376-3.1543,3.92285-3.1543,1.12402,0,2.12939.25586,2.7207.55176l-.53223,2.07031c-.43359-.23633-1.26172-.55176-2.08984-.55176-.72949,0-1.14307.29492-1.14307.78809,0,.45312.37451.69043,1.55713,1.10449,1.8335.63086,2.60254,1.55664,2.62207,2.97656,0,1.79395-1.41943,3.11523-4.1792,3.11523-1.26172,0-2.38574-.27637-3.11523-.6709l.53271-2.14844Z"/><path class="cls-8" d="M382.76649,386.13426c-.92676.31543-2.68164.74902-4.43555.74902-2.42578,0-4.17969-.61133-5.40234-1.79395-1.22168-1.14355-1.89258-2.87793-1.87305-4.83008.02051-4.41602,3.2334-6.93945,7.59082-6.93945,1.71484,0,3.03516.33496,3.68652.65039l-.63086,2.40527c-.72949-.31543-1.63672-.57129-3.0957-.57129-2.50391,0-4.39648,1.41895-4.39648,4.29785,0,2.74023,1.71582,4.35645,4.17969,4.35645.69043,0,1.24219-.0791,1.47852-.19727v-2.7793h-2.0498v-2.34668h4.94824v6.99902Z"/><path class="cls-8" d="M390.65126,386.74558l-.17676-.96582h-.05957c-.63086.76855-1.61621,1.18262-2.75977,1.18262-1.95215,0-3.11523-1.41992-3.11523-2.95703,0-2.50391,2.24805-3.70703,5.6582-3.68652v-.13867c0-.5127-.27637-1.24219-1.75488-1.24219-.98535,0-2.03027.33594-2.66113.72949l-.55176-1.93164c.66992-.375,1.99121-.84766,3.74512-.84766,3.21387,0,4.23926,1.89258,4.23926,4.16016v3.35059c0,.92676.03906,1.81445.1377,2.34668h-2.70117ZM390.29676,382.1909c-1.57715-.01953-2.7998.35547-2.7998,1.51855,0,.76855.5127,1.14355,1.18359,1.14355.74902,0,1.36035-.49316,1.55664-1.10449.04004-.15723.05957-.33496.05957-.5127v-1.04492Z"/><path class="cls-8" d="M398.7743,374.34519v2.75977h2.14941v2.20801h-2.14941v3.48926c0,1.16309.27637,1.69531,1.18262,1.69531.375,0,.6709-.03906.8877-.07812l.01953,2.2666c-.39453.1582-1.10449.25684-1.95215.25684-.96582,0-1.77344-.33594-2.24707-.82812-.55176-.57227-.82812-1.49902-.82812-2.8584v-3.94336h-1.28125v-2.20801h1.28125v-2.08984l2.9375-.66992Z"/><path class="cls-8" d="M402.65809,372.74851h2.99609v5.5h.04004c.31543-.41406.70898-.72949,1.18262-.98535.43359-.2373,1.00488-.375,1.55762-.375,1.91211,0,3.37109,1.32129,3.37109,4.21875v5.63867h-2.99707v-5.30371c0-1.26172-.43359-2.12891-1.55762-2.12891-.78809,0-1.28125.5127-1.49805,1.04492-.0791.19727-.09863.45312-.09863.66992v5.71777h-2.99609v-13.99707Z"/><path class="cls-8" d="M416.51747,382.88133c.09863,1.24219,1.32031,1.83301,2.7207,1.83301,1.02441,0,1.85254-.1377,2.66113-.39355l.39453,2.03027c-.98633.39453-2.18848.5918-3.49023.5918-3.27246,0-5.14551-1.89258-5.14551-4.90918,0-2.44434,1.51855-5.14551,4.87012-5.14551,3.11426,0,4.29785,2.4248,4.29785,4.81055,0,.5127-.05957.96582-.09863,1.18262h-6.20996ZM420.04579,380.83054c0-.72852-.31543-1.95117-1.69531-1.95117-1.26172,0-1.77441,1.14355-1.85352,1.95117h3.54883Z"/><path class="cls-8" d="M424.62001,380.27879c0-1.41895-.04004-2.3457-.0791-3.17383h2.58301l.09766,1.77441h.0791c.49316-1.39941,1.67578-1.99121,2.60254-1.99121.27637,0,.41406,0,.63086.03906v2.81934c-.2168-.03906-.47363-.0791-.80859-.0791-1.10352,0-1.85254.5918-2.0498,1.51855-.04004.19727-.05957.43359-.05957.66992v4.88965h-2.99609v-6.4668Z"/><path class="cls-8" d="M439.4452,374.34519v2.75977h2.14844v2.20801h-2.14844v3.48926c0,1.16309.27539,1.69531,1.18262,1.69531.37402,0,.66992-.03906.88672-.07812l.01953,2.2666c-.39355.1582-1.10352.25684-1.95117.25684-.96582,0-1.77441-.33594-2.24707-.82812-.55273-.57227-.82812-1.49902-.82812-2.8584v-3.94336h-1.28223v-2.20801h1.28223v-2.08984l2.9375-.66992Z"/><path class="cls-8" d="M443.32801,380.27879c0-1.41895-.03906-2.3457-.0791-3.17383h2.58301l.09863,1.77441h.0791c.49219-1.39941,1.67578-1.99121,2.60156-1.99121.27637,0,.41406,0,.63086.03906v2.81934c-.2168-.03906-.47266-.0791-.80762-.0791-1.10449,0-1.85352.5918-2.05078,1.51855-.03906.19727-.05859.43359-.05859.66992v4.88965h-2.99707v-6.4668Z"/><path class="cls-8" d="M460.18348,381.81687c0,3.52832-2.50391,5.14551-5.08594,5.14551-2.81934,0-4.98828-1.85352-4.98828-4.96777,0-3.11523,2.05078-5.10645,5.14551-5.10645,2.95801,0,4.92871,2.03027,4.92871,4.92871ZM453.20497,381.91551c0,1.65625.68945,2.89746,1.97168,2.89746,1.16309,0,1.91211-1.16309,1.91211-2.89746,0-1.43945-.55176-2.89844-1.91211-2.89844-1.43945,0-1.97168,1.47852-1.97168,2.89844Z"/><path class="cls-8" d="M462.037,380.33836c0-1.26172-.04004-2.34668-.0791-3.2334h2.60254l.1377,1.34082h.03906c.70996-1.02539,1.81445-1.55762,3.21387-1.55762,2.10938,0,4.00195,1.83301,4.00195,4.90918,0,3.50879-2.22754,5.16504-4.37695,5.16504-1.16309,0-2.06934-.47363-2.50293-1.10449h-.04004v4.79102h-2.99609v-10.31055ZM465.03309,382.60496c0,.2373.01953.4541.05957.63086.19727.80859.88672,1.41992,1.75391,1.41992,1.30176,0,2.07031-1.08398,2.07031-2.7207,0-1.53809-.68945-2.70117-2.03027-2.70117-.84766,0-1.59668.63086-1.79395,1.51855-.04004.15723-.05957.35449-.05957.53223v1.32031Z"/><path class="cls-8" d="M473.82606,372.74851h2.99707v5.5h.03906c.31543-.41406.70996-.72949,1.18262-.98535.43359-.2373,1.00586-.375,1.55762-.375,1.91211,0,3.37109,1.32129,3.37109,4.21875v5.63867h-2.99609v-5.30371c0-1.26172-.43359-2.12891-1.55762-2.12891-.78906,0-1.28125.5127-1.49805,1.04492-.0791.19727-.09863.45312-.09863.66992v5.71777h-2.99707v-13.99707Z"/><path class="cls-8" d="M488.47352,374.42429c0,.82715-.63086,1.49805-1.61621,1.49805-.94629,0-1.57715-.6709-1.55762-1.49805-.01953-.86816.61133-1.51855,1.57715-1.51855s1.57715.65039,1.59668,1.51855ZM485.37879,386.74558v-9.64062h2.99609v9.64062h-2.99609Z"/><path class="cls-8" d="M493.0868,382.88133c.09863,1.24219,1.32129,1.83301,2.7207,1.83301,1.02539,0,1.85352-.1377,2.66113-.39355l.39453,2.03027c-.98535.39453-2.18848.5918-3.48926.5918-3.27246,0-5.14551-1.89258-5.14551-4.90918,0-2.44434,1.51758-5.14551,4.86914-5.14551,3.11523,0,4.29785,2.4248,4.29785,4.81055,0,.5127-.05859.96582-.09863,1.18262h-6.20996ZM496.6161,380.83054c0-.72852-.31543-1.95117-1.69531-1.95117-1.26172,0-1.77441,1.14355-1.85352,1.95117h3.54883Z"/><path class="cls-8" d="M501.16981,384.12351c.55176.33496,1.69531.72949,2.58301.72949.90625,0,1.28125-.31543,1.28125-.80859s-.2959-.72949-1.41992-1.10352c-1.99121-.6709-2.75977-1.75488-2.74023-2.89844,0-1.79395,1.53809-3.1543,3.92383-3.1543,1.12305,0,2.12891.25586,2.71973.55176l-.53223,2.07031c-.43359-.23633-1.26172-.55176-2.08984-.55176-.72852,0-1.14258.29492-1.14258.78809,0,.45312.37402.69043,1.55664,1.10449,1.83398.63086,2.60254,1.55664,2.62207,2.97656,0,1.79395-1.41895,3.11523-4.17871,3.11523-1.26172,0-2.38574-.27637-3.11523-.6709l.53223-2.14844Z"/></svg>